<?xml version="1.0" standalone="no"?>
<!DOCTYPE svg PUBLIC "-//W3C//DTD SVG 20010904//EN"
 "http://www.w3.org/TR/2001/REC-SVG-20010904/DTD/svg10.dtd">
<svg version="1.0" xmlns="http://www.w3.org/2000/svg"
 width="820.000000pt" height="860.000000pt" viewBox="0 0 820.000000 860.000000"
 preserveAspectRatio="xMidYMid meet">
<metadata>
Created by potrace 1.16, written by Peter Selinger 2001-2019
</metadata>
<g transform="translate(0.000000,860.000000) scale(0.100000,-0.100000)"
fill="#ffff" stroke="none">
<path d="M3810 8183 c-804 -57 -1572 -361 -2220 -880 -174 -138 -457 -421
-593 -592 -483 -606 -755 -1248 -862 -2031 -21 -155 -31 -615 -16 -795 68
-853 398 -1647 950 -2290 1199 -1396 3185 -1795 4831 -970 1082 542 1870 1566
2114 2745 237 1144 -19 2298 -714 3225 -685 914 -1728 1491 -2866 1585 -108 9
-515 11 -624 3z m-1650 -1571 c20 -9 44 -33 55 -54 17 -33 18 -41 7 -90 -25
-101 -25 -112 -4 -138 19 -24 26 -25 167 -30 130 -4 148 -7 161 -24 17 -23 18
-45 4 -82 -8 -21 -7 -31 5 -44 25 -28 103 -57 185 -69 155 -23 203 -47 219
-107 8 -30 15 -35 76 -54 22 -6 70 -31 106 -55 84 -55 135 -80 178 -89 55 -10
300 -105 371 -143 74 -40 143 -102 161 -146 11 -26 10 -31 -7 -44 -30 -23
-134 -11 -250 30 -136 47 -174 53 -218 32 -26 -12 -39 -28 -52 -61 -16 -41
-15 -61 5 -361 48 -703 82 -920 196 -1251 25 -73 61 -166 80 -206 116 -245
487 -690 725 -870 311 -235 651 -387 1051 -469 l109 -22 109 110 c129 129 193
169 260 162 92 -10 90 -55 -9 -175 -91 -112 -81 -129 71 -117 77 6 100 3 186
-20 117 -32 159 -29 214 15 l39 31 31 -23 c29 -22 43 -23 216 -28 179 -5 185
-6 204 -29 26 -32 26 -114 0 -140 -24 -24 -95 -46 -191 -61 -103 -16 -168 -36
-211 -64 -35 -24 -38 -24 -80 -9 -66 23 -154 12 -303 -36 -98 -32 -155 -44
-235 -51 -58 -5 -153 -16 -211 -24 -362 -52 -828 -43 -1325 25 -448 61 -849
204 -1180 420 -126 83 -377 283 -475 380 -78 77 -222 256 -357 444 -211 296
-419 702 -543 1060 -23 66 -72 246 -110 400 -81 332 -107 417 -168 549 -39 87
-45 108 -45 168 0 89 41 177 115 243 64 57 105 79 232 121 54 18 106 40 114
48 14 13 10 14 -34 1 -27 -7 -67 -23 -89 -34 -78 -42 -135 -12 -121 63 8 39
61 92 104 102 121 27 156 48 183 110 24 53 19 112 -12 140 -10 9 -19 25 -19
34 0 18 56 73 127 125 54 39 87 88 78 114 -3 12 -25 36 -47 54 -78 62 -111
158 -70 206 43 51 153 68 222 33z"/>
<path d="M2041 6598 c-54 -29 -86 -117 -53 -150 10 -10 11 -6 6 19 l-6 32 88
3 c102 3 114 15 67 67 -33 36 -69 46 -102 29z"/>
<path d="M2317 6078 c-12 -38 45 -135 99 -169 19 -11 46 -19 61 -17 27 3 28 5
26 52 -1 46 0 48 23 43 13 -2 24 -1 24 4 0 18 -58 51 -132 74 -91 29 -95 29
-101 13z"/>
<path d="M2665 5903 c-11 -2 -83 -22 -160 -43 -77 -22 -214 -58 -304 -81 -168
-41 -254 -70 -234 -76 7 -3 47 7 90 21 163 51 288 57 368 16 l37 -19 -6 24
c-7 29 2 55 19 55 7 0 26 -16 42 -36 59 -74 82 -94 107 -94 31 0 56 42 56 95
l0 36 35 -27 c46 -35 55 -24 20 21 -25 33 -26 39 -14 67 10 25 10 31 -2 39
-15 9 -21 9 -54 2z"/>
<path d="M2950 5709 c-189 -28 -293 -52 -545 -128 -126 -38 -268 -76 -315 -86
-135 -26 -170 -37 -170 -50 0 -7 21 -23 48 -35 44 -21 46 -23 25 -33 -33 -14
-28 -35 12 -58 40 -24 43 -34 16 -49 -48 -25 -155 4 -197 53 -19 23 -25 39
-22 64 2 18 2 33 0 33 -19 0 -156 -37 -188 -50 -60 -26 -112 -76 -124 -119
-12 -47 8 -122 44 -166 l25 -30 1 85 c0 93 22 160 58 179 22 12 105 15 115 5
4 -4 -8 -14 -26 -23 -68 -34 -33 -116 68 -162 69 -32 105 -21 105 32 0 31 9
34 114 45 l69 7 -6 -30 c-5 -28 -4 -30 16 -26 65 14 135 42 250 100 136 68
218 92 307 91 139 -1 548 84 648 136 98 51 156 153 122 217 -10 18 -22 19
-168 18 -98 0 -204 -8 -282 -20z"/>
<path d="M3148 5365 c-14 -8 -58 -19 -97 -25 -96 -13 -155 -27 -199 -46 -34
-15 -35 -17 -18 -27 10 -7 31 -22 45 -34 l26 -22 -25 -1 c-14 0 -59 9 -100 20
-92 24 -90 24 -90 2 0 -35 -32 -52 -97 -52 -58 0 -60 -1 -56 -24 10 -50 -110
-109 -212 -104 -57 3 -60 2 -69 -25 -9 -23 -4 -39 27 -102 43 -88 44 -96 16
-134 -17 -24 -32 -30 -77 -36 -30 -4 -65 -11 -77 -17 -23 -10 -45 -47 -45 -73
0 -9 -10 -15 -24 -15 -32 0 -41 -29 -23 -72 21 -50 52 -73 79 -61 16 7 34 6
60 -3 110 -38 144 -116 122 -278 -6 -40 -10 -47 -28 -44 -28 4 -66 73 -66 121
0 30 5 40 25 49 14 6 25 16 25 21 0 12 -75 87 -87 87 -12 0 -54 -41 -94 -91
l-29 -37 26 -17 c50 -33 104 -88 104 -106 0 -11 -9 -27 -19 -36 -19 -15 -18
-17 22 -37 50 -25 80 -68 102 -144 26 -90 61 -115 101 -71 10 12 27 24 37 28
15 6 3 21 -69 93 -94 92 -101 114 -33 103 l40 -7 -7 80 -7 79 31 16 31 15 -6
-97 c-8 -126 4 -134 81 -61 34 32 59 48 69 44 18 -7 95 -107 108 -141 22 -57
-38 -81 -118 -48 -20 8 -38 13 -41 10 -5 -4 34 -44 101 -103 54 -48 68 -75 72
-138 5 -82 28 -110 89 -107 30 1 46 -3 46 -11 0 -7 7 -21 15 -32 13 -16 16
-17 25 -4 5 8 10 30 10 48 0 30 2 33 23 26 71 -22 93 -43 127 -127 16 -40 32
-63 44 -65 22 -5 18 13 -26 111 -16 38 -28 70 -26 73 9 9 150 -148 165 -183
27 -66 -4 -108 -90 -121 l-44 -7 75 -62 c50 -42 88 -65 111 -69 60 -10 67 -13
105 -50 41 -40 76 -102 76 -137 0 -62 -63 -63 -177 -1 -88 48 -173 80 -173 64
0 -18 88 -67 230 -129 80 -35 213 -98 295 -140 148 -75 151 -77 272 -199 136
-136 137 -138 28 -136 -100 1 -198 59 -135 79 11 3 20 10 20 14 0 11 -115 35
-134 28 -21 -8 -9 -44 29 -81 40 -41 116 -63 253 -74 56 -5 105 -12 108 -15 4
-3 -4 -20 -16 -36 -22 -32 -20 -51 7 -51 14 0 14 -2 -1 -19 -22 -24 -16 -36
34 -61 32 -17 44 -18 65 -8 36 16 67 -1 111 -62 47 -65 67 -65 139 0 51 46 65
56 65 46 0 -2 -14 -20 -30 -41 -17 -21 -28 -40 -26 -42 2 -2 34 12 71 31 109
58 193 49 406 -42 63 -27 136 -52 162 -56 26 -4 73 -16 105 -28 31 -11 80 -20
107 -20 56 -1 133 28 118 43 -5 5 -66 25 -136 43 -136 36 -181 58 -175 84 4
15 -5 17 -71 17 -103 1 -165 30 -268 127 -67 64 -87 77 -143 93 -87 25 -190
68 -257 106 -128 73 -254 210 -238 259 5 17 -5 34 -52 83 -72 75 -136 160
-205 275 -29 48 -76 110 -105 139 -29 30 -53 58 -53 63 0 6 -4 10 -9 10 -6 0
-11 -15 -13 -32 l-3 -33 -21 45 c-23 51 -85 110 -114 110 -35 0 -25 44 17 79
l37 31 -21 22 c-11 13 -24 40 -27 61 -4 21 -23 91 -42 155 -20 64 -47 168 -60
231 -13 64 -26 122 -29 129 -9 24 -42 -6 -69 -60 -21 -45 -25 -49 -26 -26 0
39 20 127 31 134 6 3 16 0 24 -6 12 -10 17 -7 25 16 16 41 9 68 -18 72 -19 3
-23 8 -17 25 23 78 13 199 -16 182 -6 -4 -7 15 -2 52 5 32 8 109 8 172 -1 108
-2 114 -26 135 -24 20 -24 23 -12 76 32 142 25 299 -14 342 -19 22 -58 23 -95
3z m48 -229 c3 -14 1 -40 -4 -58 -17 -56 -22 -97 -12 -103 5 -3 17 20 26 52
19 69 34 89 34 48 0 -35 -22 -110 -44 -154 -32 -61 -86 -28 -86 52 0 36 25
138 40 168 15 27 38 24 46 -5z m-838 -575 c61 -31 81 -92 42 -131 -27 -27 -47
-17 -114 58 -74 83 -75 100 -3 50 41 -29 52 -17 23 25 -30 44 -33 56 -8 35 9
-9 36 -25 60 -37z m715 -154 c6 -26 15 -37 30 -39 20 -3 22 -9 22 -66 0 -43 4
-65 14 -71 17 -11 8 -68 -14 -97 -15 -18 -16 -18 -28 0 -7 10 -24 34 -39 53
-15 19 -30 54 -34 80 -7 48 -1 154 11 173 12 19 29 5 38 -33z m-381 -147 c36
-59 35 -35 -2 50 -34 78 -35 80 -17 80 25 0 177 -174 177 -202 0 -9 -7 -19
-16 -22 -12 -4 -15 -15 -12 -36 4 -28 3 -29 -13 -14 -18 16 -29 15 -61 -8 -13
-9 -20 -9 -33 2 -39 32 -105 208 -105 279 0 36 1 36 27 -24 15 -33 40 -80 55
-105z"/>
<path d="M1760 4422 c0 -12 11 -55 25 -94 33 -94 31 -105 -6 -38 -16 30 -41
66 -56 80 l-25 25 6 -30 c4 -16 24 -66 46 -110 21 -44 60 -129 85 -189 48
-117 89 -188 130 -226 31 -29 31 -22 1 38 -13 26 -35 83 -50 128 -15 45 -41
103 -58 130 -23 37 -25 44 -9 30 12 -11 24 -16 28 -13 16 16 -56 204 -106 277
-9 12 -11 11 -11 -8z"/>
<path d="M2537 3954 c-2 -3 4 -27 16 -53 11 -27 17 -56 14 -65 -10 -25 -56
-20 -130 14 -113 51 -153 37 -107 -38 11 -18 20 -39 20 -46 0 -8 30 -26 68
-41 37 -15 113 -51 170 -81 94 -49 152 -67 152 -46 0 15 -58 99 -77 113 -27
19 -49 65 -58 119 -10 70 -25 109 -44 120 -10 5 -21 7 -24 4z"/>
<path d="M1860 3898 c1 -27 89 -218 144 -313 76 -128 303 -466 309 -457 2 4 2
1 0 -7 -6 -25 132 -239 217 -335 29 -33 77 -80 108 -105 30 -25 98 -85 149
-133 82 -76 103 -90 160 -108 77 -24 97 -16 73 28 -22 38 -109 101 -150 109
-26 4 -50 22 -92 69 -34 37 -55 69 -52 77 4 10 -5 16 -30 21 -40 8 -75 44
-111 117 -27 52 -33 58 -71 65 -61 11 -90 47 -123 154 -25 79 -62 141 -105
174 -19 14 -44 45 -54 69 -10 23 -54 85 -97 137 -97 118 -120 155 -152 239
-22 59 -108 211 -119 211 -2 0 -4 -6 -4 -12z"/>
<path d="M2663 3503 c24 -27 21 -34 -9 -23 -36 14 -37 13 -31 -16 4 -24 2 -26
-24 -20 -38 7 -37 -3 6 -44 38 -37 43 -50 20 -50 -26 0 -16 -13 48 -64 65 -53
64 -70 -2 -36 -42 21 -54 15 -23 -12 9 -9 50 -32 90 -52 39 -20 97 -52 128
-72 101 -64 170 -83 105 -29 -24 21 -30 32 -25 51 5 20 -2 32 -35 62 -23 21
-41 47 -41 59 0 14 -15 30 -45 50 -25 15 -45 31 -45 36 0 4 17 7 38 7 35 1 36
2 17 15 -55 39 -53 54 11 75 19 6 34 15 34 20 0 11 -133 51 -190 58 -44 5 -45
4 -27 -15z"/>
<path d="M2813 2934 c-14 -38 45 -80 166 -116 46 -13 164 -6 185 11 26 22 6
34 -130 80 -130 44 -210 53 -221 25z"/>
<path d="M3255 2265 c17 -14 99 -60 184 -102 155 -77 188 -108 63 -58 -37 14
-116 52 -177 84 -131 68 -162 81 -126 51 98 -83 552 -273 755 -316 102 -22
600 -91 741 -103 66 -6 170 -11 232 -11 122 0 313 17 326 30 19 18 -115 30
-259 24 -108 -5 -161 -3 -194 6 -28 8 -120 14 -245 15 -161 2 -228 7 -345 27
-131 23 -168 34 -385 121 -230 91 -367 152 -485 216 -30 17 -68 33 -85 36
l-30 6 30 -26z"/>
<path d="M5515 2168 c-20 -11 -35 -28 -35 -39 0 -6 298 -23 391 -22 53 1 99
15 99 31 0 12 -263 42 -355 42 -44 0 -89 -6 -100 -12z"/>
</g>
</svg>
